# File created by Blade
# Date/Time:  Tue Jan 27 19:14:06 2015
# Frame Rate: 120.000 fps
#------------------------------------------------------
:FULLY-SPECIFIED
:DEGREES
2254
root 4.249320 32.472511 0.721520 -3.737346 9.760798 1.384287
Spine -0.913185 8.795462 -1.743228
Head 12.899155 -19.488335 -5.340507
LeftShoulder -5.340809 -8.811326 23.242323
LeftArm -4.960172 37.610133 -102.821347
LeftForeArm 3.243162 -0.000000 11.196107
LeftHand 10.191230 -0.000000 -7.712116
LeftHandThumb1 -26.253704 0.000000 33.147579
RightShoulder -11.168806 16.423431 -57.022928
RightArm 71.537601 68.092119 81.335774
RightForeArm 33.616298 -0.000000 112.296913
RightHand 30.768135 0.000000 -9.915380
RightHandThumb1 -24.326973 -0.000000 -32.862282
LeftUpLeg 8.947301 -6.062542 -1.856110
LeftLeg 2.076015 -0.000000 -0.000000
LeftFoot -13.634508 7.924542 -21.768041
LeftToeBase 19.088174 -0.000000 -0.000000
RightUpLeg 10.811727 -3.611445 2.387285
RightLeg -0.705822 -0.000000 0.000000
RightFoot -13.484007 -18.124110 15.806931
RightToeBase 11.754793 -0.000000 -0.000000
2255
root 4.247778 32.472161 0.722530 -3.744784 9.762357 1.384017
Spine -0.914647 8.802256 -1.743285
Head 12.891046 -19.480770 -5.329254
LeftShoulder -5.329071 -8.824375 23.242012
LeftArm -4.992163 37.551783 -102.844572
LeftForeArm 3.263597 -0.000000 11.185917
LeftHand 10.183132 -0.000000 -7.645116
LeftHandThumb1 -26.253704 0.000000 33.147579
RightShoulder -11.184220 16.408405 -57.021667
RightArm 71.589968 68.060539 81.392330
RightForeArm 33.637471 -0.000000 112.302057
RightHand 30.732030 -0.000000 -9.865591
RightHandThumb1 -24.326973 -0.000000 -32.862282
LeftUpLeg 8.948150 -6.100545 -1.859543
LeftLeg 2.095644 -0.000000 -0.000000
LeftFoot -13.646078 7.947385 -21.777736
LeftToeBase 19.031990 -0.000000 -0.000000
RightUpLeg 10.823042 -3.613233 2.388780
RightLeg -0.711886 -0.000000 0.000000
RightFoot -13.485761 -18.117232 15.805112
RightToeBase 11.759094 -0.000000 -0.000000
2256
root 4.246038 32.471486 0.724238 -3.751649 9.753874 1.385482
Spine -0.916101 8.803552 -1.748210
Head 12.858147 -19.474240 -5.312423
LeftShoulder -5.335104 -8.814104 23.250733
LeftArm -4.999551 37.530528 -102.858678
LeftForeArm 3.275319 0.000000 11.165581
LeftHand 10.222875 -0.000000 -7.627060
LeftHandThumb1 -26.253704 0.000000 33.147579
RightShoulder -11.192982 16.412252 -57.019112
RightArm 71.633126 68.028350 81.443809
RightForeArm 33.648886 -0.000000 112.298947
RightHand 30.741593 -0.000000 -9.848729
RightHandThumb1 -24.326973 -0.000000 -32.862282
LeftUpLeg 8.956475 -6.063451 -1.852783
LeftLeg 2.091129 -0.000000 -0.000000
LeftFoot -13.670280 7.966969 -21.644801
LeftToeBase 19.275929 -0.000000 -0.000000
RightUpLeg 10.827643 -3.625291 2.387426
RightLeg -0.702224 -0.000000 0.000000
RightFoot -13.493689 -18.097650 15.795905
RightToeBase 11.757682 -0.000000 -0.000000
2257
root 4.244241 32.471025 0.724956 -3.757186 9.751992 1.380772
Spine -0.919513 8.815013 -1.746755
Head 12.844666 -19.479901 -5.289306
LeftShoulder -5.320479 -8.808077 23.252856
LeftArm -5.014188 37.511163 -102.869592
LeftForeArm 3.279749 -0.000000 11.165719
LeftHand 10.222510 -0.000000 -7.595010
LeftHandThumb1 -26.253704 0.000000 33.147579
RightShoulder -11.210517 16.384055 -57.017852
RightArm 71.711375 68.002061 81.530866
RightForeArm 33.681226 -0.000000 112.299147
RightHand 30.779176 -0.000000 -9.840062
RightHandThumb1 -24.326973 -0.000000 -32.862282
LeftUpLeg 8.954022 -6.073058 -1.848982
LeftLeg 2.115796 -0.000000 -0.000000
LeftFoot -13.680051 7.931499 -21.781426
LeftToeBase 19.125347 -0.000000 -0.000000
RightUpLeg 10.837521 -3.635257 2.393179
RightLeg -0.711418 -0.000000 0.000000
RightFoot -13.485733 -18.081803 15.801070
RightToeBase 11.730846 -0.000000 -0.000000
2258
root 4.242946 32.470521 0.725084 -3.759009 9.748598 1.383714
Spine -0.924678 8.817997 -1.751072
Head 12.836222 -19.462438 -5.271230
LeftShoulder -5.322186 -8.805158 23.256735
LeftArm -5.025477 37.512083 -102.888259
LeftForeArm 3.258748 0.000000 11.143927
LeftHand 10.228584 -0.000000 -7.563640
LeftHandThumb1 -26.253704 0.000000 33.147579
RightShoulder -11.215629 16.383895 -57.018491
RightArm 71.736285 67.982288 81.567880
RightForeArm 33.673601 -0.000000 112.301140
RightHand 30.773925 -0.000000 -9.869068
RightHandThumb1 -24.326973 -0.000000 -32.862282
LeftUpLeg 8.950008 -6.073013 -1.849683
LeftLeg 2.124031 -0.000000 -0.000000
LeftFoot -13.700739 7.974536 -21.654484
LeftToeBase 19.264396 -0.000000 -0.000000
RightUpLeg 10.838073 -3.635262 2.391382
RightLeg -0.708726 -0.000000 0.000000
RightFoot -13.487378 -18.070458 15.800562
RightToeBase 11.758459 -0.000000 -0.000000
2259
root 4.241158 32.470172 0.724869 -3.757648 9.743889 1.382395
Spine -0.928914 8.818742 -1.754196
Head 12.814222 -19.441444 -5.251543
LeftShoulder -5.327602 -8.801566 23.263006
LeftArm -5.036318 37.511326 -102.903544
LeftForeArm 3.233058 -0.000000 11.129468
LeftHand 10.221746 -0.000000 -7.591813
LeftHandThumb1 -26.253704 0.000000 33.147579
RightShoulder -11.233745 16.376703 -57.029450
RightArm 71.776050 67.957754 81.640574
RightForeArm 33.672736 -0.000000 112.307589
RightHand 30.766401 -0.000000 -9.870944
RightHandThumb1 -24.326973 -0.000000 -32.862282
LeftUpLeg 8.943648 -6.108529 -1.852566
LeftLeg 2.151929 -0.000000 -0.000000
LeftFoot -13.683810 7.946389 -21.714807
LeftToeBase 18.977816 -0.000000 -0.000000
RightUpLeg 10.830891 -3.643721 2.394475
RightLeg -0.700998 -0.000000 0.000000
RightFoot -13.490147 -18.063420 15.792856
RightToeBase 11.766144 -0.000000 -0.000000
2260
root 4.239846 32.469520 0.725090 -3.761376 9.742131 1.384861
Spine -0.930704 8.804247 -1.761801
Head 12.804423 -19.415402 -5.222317
LeftShoulder -5.339603 -8.793299 23.275319
LeftArm -5.048447 37.511077 -102.930518
LeftForeArm 3.218814 -0.000000 11.099806
LeftHand 10.262568 0.000000 -7.552670
LeftHandThumb1 -26.253704 0.000000 33.147579
RightShoulder -11.239929 16.377865 -57.026530
RightArm 71.838206 67.933699 81.722980
RightForeArm 33.676298 0.000000 112.312152
RightHand 30.750171 0.000000 -9.869996
RightHandThumb1 -24.326973 -0.000000 -32.862282
LeftUpLeg 8.939236 -6.110772 -1.852456
LeftLeg 2.153493 -0.000000 -0.000000
LeftFoot -13.730004 8.007753 -21.669003
LeftToeBase 19.266931 -0.000000 -0.000000
RightUpLeg 10.838580 -3.664272 2.388202
RightLeg -0.703348 -0.000000 0.000000
RightFoot -13.497177 -18.033135 15.791455
RightToeBase 11.738542 -0.000000 -0.000000
2261
root 4.238092 32.469344 0.724822 -3.763348 9.734277 1.383742
Spine -0.932961 8.803718 -1.765179
Head 12.788581 -19.394012 -5.192898
LeftShoulder -5.341823 -8.788322 23.280205
LeftArm -5.063992 37.512540 -102.945361
LeftForeArm 3.238726 -0.000000 11.097609
LeftHand 10.243442 -0.000000 -7.590021
LeftHandThumb1 -26.253704 0.000000 33.147579
RightShoulder -11.240757 16.384480 -57.024924
RightArm 71.874666 67.925596 81.779526
RightForeArm 33.681831 0.000000 112.319996
RightHand 30.754157 -0.000000 -9.861961
RightHandThumb1 -24.326973 -0.000000 -32.862282
LeftUpLeg 8.938330 -6.133429 -1.853308
LeftLeg 2.166748 -0.000000 -0.000000
LeftFoot -13.738590 7.986144 -21.816350
LeftToeBase 19.083868 -0.000000 -0.000000
RightUpLeg 10.835799 -3.646202 2.395302
RightLeg -0.697823 -0.000000 0.000000
RightFoot -13.506351 -18.036426 15.806059
RightToeBase 11.790704 -0.000000 -0.000000
2262
root 4.236949 32.469964 0.724113 -3.762247 9.724103 1.387011
Spine -0.934324 8.811011 -1.770341
Head 12.798352 -19.364695 -5.187289
LeftShoulder -5.319471 -8.685964 23.258719
LeftArm -4.962421 37.494503 -102.874631
LeftForeArm 3.272274 -0.000000 11.099848
LeftHand 10.240287 -0.000000 -7.580845
LeftHandThumb1 -26.253704 0.000000 33.147579
RightShoulder -11.298757 16.590911 -57.081271
RightArm 71.373126 67.830499 81.354595
RightForeArm 33.659138 -0.000000 112.320171
RightHand 30.752862 -0.000000 -9.813456
RightHandThumb1 -24.326973 -0.000000 -32.862282
LeftUpLeg 8.927378 -6.110552 -1.853892
LeftLeg 2.186437 -0.000000 -0.000000
LeftFoot -13.728379 7.979093 -21.788330
LeftToeBase 19.036571 -0.000000 -0.000000
RightUpLeg 10.831276 -3.626146 2.397371
RightLeg -0.695686 -0.000000 0.000000
RightFoot -13.507249 -18.054340 15.801978
RightToeBase 11.815171 -0.000000 -0.000000
2263
root 4.235619 32.469665 0.723495 -3.762763 9.724793 1.387400
Spine -0.934084 8.796474 -1.775589
Head 12.773377 -19.313052 -5.162677
LeftShoulder -5.325023 -8.703927 23.247073
LeftArm -4.992329 37.486285 -102.883588
LeftForeArm 3.235536 -0.000000 11.062671
LeftHand 10.353224 -0.000000 -8.006327
LeftHandThumb1 -26.253704 0.000000 33.147579
RightShoulder -11.304250 16.636057 -57.085343
RightArm 71.315015 67.823779 81.321559
RightForeArm 33.656510 -0.000000 112.320957
RightHand 30.746793 0.000000 -9.824860
RightHandThumb1 -24.326973 -0.000000 -32.862282
LeftUpLeg 8.916297 -6.134700 -1.854623
LeftLeg 2.202933 -0.000000 -0.000000
LeftFoot -13.773911 8.039672 -21.670246
LeftToeBase 19.266639 -0.000000 -0.000000
RightUpLeg 10.831854 -3.640106 2.395571
RightLeg -0.697669 -0.000000 0.000000
RightFoot -13.506727 -18.033143 15.805759
RightToeBase 11.783676 -0.000000 -0.000000
2264
root 4.234584 32.469482 0.721783 -3.762806 9.719589 1.389733
Spine -0.934650 8.795964 -1.779677
Head 12.763680 -19.311703 -5.140005
LeftShoulder -5.328150 -8.683051 23.260105
LeftArm -4.987453 37.499383 -102.902829
LeftForeArm 3.292068 -0.000000 11.072521
LeftHand 10.222157 -0.000000 -7.762466
LeftHandThumb1 -26.253704 0.000000 33.147579
RightShoulder -11.302599 16.592828 -57.074211
RightArm 71.470259 67.828294 81.481560
RightForeArm 33.631144 -0.000000 112.319607
RightHand 30.737257 -0.000000 -9.830434
RightHandThumb1 -24.326973 -0.000000 -32.862282
LeftUpLeg 8.905050 -6.136731 -1.856537
LeftLeg 2.219799 -0.000000 -0.000000
LeftFoot -13.781043 8.036224 -21.685881
LeftToeBase 19.270806 -0.000000 -0.000000
RightUpLeg 10.826652 -3.614348 2.398596
RightLeg -0.692343 -0.000000 0.000000
RightFoot -13.506376 -18.052048 15.797158
RightToeBase 11.729908 -0.000000 -0.000000
2265
root 4.232902 32.469275 0.720959 -3.765257 9.713212 1.388903
Spine -0.930428 8.800542 -1.783100
Head 12.746492 -19.298043 -5.108444
LeftShoulder -5.333799 -8.702488 23.255749
LeftArm -5.010536 37.512580 -102.918776
LeftForeArm 3.160331 -0.000000 11.040829
LeftHand 10.353291 0.000000 -7.290208
LeftHandThumb1 -26.253704 0.000000 33.147579
RightShoulder -11.316169 16.609214 -57.079066
RightArm 71.459552 67.825100 81.498041
RightForeArm 33.638096 -0.000000 112.310725
RightHand 30.734422 -0.000000 -9.750541
RightHandThumb1 -24.326973 -0.000000 -32.862282
LeftUpLeg 8.894218 -6.152615 -1.857431
LeftLeg 2.246305 -0.000000 -0.000000
LeftFoot -13.805363 8.055759 -21.696928
LeftToeBase 19.283851 -0.000000 -0.000000
RightUpLeg 10.824730 -3.612584 2.400911
RightLeg -0.689857 -0.000000 0.000000
RightFoot -13.514405 -18.044782 15.801722
RightToeBase 11.784382 -0.000000 -0.000000
2266
root 4.232269 32.469045 0.720138 -3.767976 9.702801 1.393847
Spine -0.929428 8.810463 -1.789822
Head 12.754079 -19.286538 -5.095065
LeftShoulder -5.335817 -8.706759 23.252792
LeftArm -5.022684 37.498355 -102.931728
LeftForeArm 3.175683 -0.000000 11.024613
LeftHand 10.319518 -0.000000 -7.262780
LeftHandThumb1 -26.253704 0.000000 33.147579
RightShoulder -11.322398 16.612182 -57.076200
RightArm 71.503137 67.819653 81.550893
RightForeArm 33.660053 -0.000000 112.296130
RightHand 30.724598 -0.000000 -9.669814
RightHandThumb1 -24.326973 -0.000000 -32.862282
LeftUpLeg 8.879950 -6.123936 -1.860070
LeftLeg 2.280247 -0.000000 -0.000000
LeftFoot -13.812457 8.048211 -21.676414
LeftToeBase 19.292118 -0.000000 -0.000000
RightUpLeg 10.825399 -3.575947 2.401954
RightLeg -0.686440 -0.000000 0.000000
RightFoot -13.522181 -18.057438 15.796959
RightToeBase 11.774986 -0.000000 -0.000000
